<svg width="30" height="30" viewBox="0 0 30 30" fill="none" xmlns="http://www.w3.org/2000/svg">
<path d="M16.7637 20.1301L12.4805 20.1301C12.3406 20.1301 12.2065 20.0745 12.1076 19.9756C12.0087 19.8768 11.9531 19.7426 11.9531 19.6028C11.9531 19.4629 12.0087 19.3288 12.1076 19.2299C12.2065 19.131 12.3406 19.0754 12.4805 19.0754L16.7637 19.0754C16.8236 19.0747 16.8808 19.0505 16.9232 19.0082C16.9655 18.9658 16.9897 18.9086 16.9904 18.8487L16.9904 16.8395C16.9904 16.7402 17.0184 16.643 17.0711 16.5589C17.1239 16.4749 17.1993 16.4074 17.2887 16.3643C18.3649 15.8458 19.2332 14.9773 19.7514 13.901C20.2696 12.8246 20.407 11.6042 20.1411 10.4396C19.8753 9.27496 19.2218 8.23512 18.2878 7.49033C17.3538 6.74554 16.1946 6.33994 15 6.33994C13.8054 6.33994 12.6462 6.74554 11.7122 7.49033C10.7782 8.23512 10.1248 9.27496 9.85886 10.4396C9.59296 11.6042 9.73037 12.8246 10.2486 13.901C10.7668 14.9773 11.6351 15.8458 12.7113 16.3643C12.8007 16.4074 12.8761 16.4749 12.9289 16.5589C12.9816 16.643 13.0096 16.7402 13.0096 16.8395L13.0096 18.1227C13.0096 18.2625 12.954 18.3967 12.8551 18.4956C12.7562 18.5945 12.6221 18.65 12.4822 18.65C12.3424 18.65 12.2082 18.5945 12.1093 18.4956C12.0104 18.3967 11.9549 18.2625 11.9549 18.1227L11.9549 17.1606C10.7235 16.4846 9.75201 15.4181 9.19352 14.1292C8.63503 12.8403 8.52128 11.4022 8.87019 10.0415C9.21911 8.68076 10.0109 7.47483 11.1207 6.61369C12.2305 5.75255 13.5953 5.28516 15 5.28516C16.4047 5.28516 17.7695 5.75255 18.8793 6.61369C19.9892 7.47483 20.7809 8.68076 21.1298 10.0415C21.4787 11.4022 21.365 12.8403 20.8065 14.1292C20.248 15.4181 19.2765 16.4846 18.0451 17.1606L18.0451 18.8487C18.0448 19.1884 17.9097 19.5142 17.6695 19.7544C17.4292 19.9947 17.1034 20.1298 16.7637 20.1301Z" fill="black"/>
<path d="M14.9413 24.719C14.597 24.7197 14.2658 24.587 14.0173 24.3487L12.2413 22.6466C12.2385 22.644 12.2357 22.6413 12.2331 22.6384C12.0789 22.4839 11.9739 22.2872 11.9313 22.0731C11.8888 21.859 11.9107 21.6371 11.9942 21.4354C12.0777 21.2337 12.2191 21.0613 12.4005 20.9399C12.582 20.8185 12.7953 20.7536 13.0136 20.7534L17.4468 20.7534C17.5867 20.7534 17.7208 20.809 17.8197 20.9079C17.9186 21.0068 17.9741 21.1409 17.9741 21.2808C17.9741 21.4206 17.9186 21.5548 17.8197 21.6536C17.7208 21.7525 17.5867 21.8081 17.4468 21.8081L13.0136 21.8081C13.0035 21.807 12.9934 21.8096 12.9851 21.8153C12.9767 21.8209 12.9706 21.8294 12.9679 21.8392C12.9635 21.8473 12.9619 21.8566 12.9634 21.8658C12.9648 21.8749 12.9693 21.8833 12.9761 21.8895L14.7474 23.5888C14.801 23.6399 14.8725 23.6679 14.9466 23.6665C15.0206 23.6652 15.0912 23.6347 15.1429 23.5817L16.32 22.3706C16.418 22.2728 16.5505 22.2175 16.689 22.2166C16.8274 22.2157 16.9606 22.2692 17.0599 22.3657C17.1592 22.4621 17.2166 22.5937 17.2197 22.7321C17.2228 22.8705 17.1714 23.0046 17.0765 23.1054L15.8993 24.3165C15.7748 24.4444 15.6258 24.5459 15.4612 24.615C15.2966 24.6842 15.1198 24.7195 14.9413 24.719Z" fill="black"/>
</svg>
