<svg width="22" height="23" viewBox="0 0 22 23" fill="none" xmlns="http://www.w3.org/2000/svg">
<path d="M13.9645 -2.04925e-07L7.71447 -1.13208e-07C6.67893 -9.80119e-08 5.83947 0.839466 5.83947 1.875C5.83947 2.91053 6.68257 3.75 7.71447 3.75L7.71447 10.365L0.915292 17.1653C0.329241 17.7513 2.72161e-07 18.5462 2.84324e-07 19.375C3.09651e-07 21.1009 1.39911 22.5 3.125 22.5L18.5539 22.5C19.3827 22.5 20.252 22.1549 20.8712 21.4717C21.9829 20.2451 21.9471 18.3487 20.7636 17.1653L13.9638 10.365L13.9645 3.75C15 3.75 15.8395 2.91053 15.8395 1.875C15.8395 0.839466 15 -2.20122e-07 13.9645 -2.04925e-07ZM7.71447 1.25L13.9645 1.25C14.3096 1.25 14.5895 1.52982 14.5895 1.875C14.5895 2.22018 14.3096 2.5 13.9645 2.5L13.3394 2.5C12.9942 2.5 12.7144 2.77983 12.7144 3.12501L12.7145 10.625C12.7145 10.7908 12.7803 10.9497 12.8975 11.0669L19.8798 18.0492C20.612 18.7814 20.612 19.9686 19.8798 20.7008C19.5281 21.0525 19.0512 21.25 18.5539 21.25L3.125 21.25C2.08947 21.25 1.25 20.4105 1.25 19.375C1.25 18.8777 1.44754 18.4008 1.79918 18.0492L8.78141 11.0669C8.89862 10.9497 8.96447 10.7908 8.96447 10.625L8.96438 3.12499C8.96437 2.77982 8.68455 2.5 8.33938 2.5L7.71447 2.5C7.36929 2.5 7.08947 2.22018 7.08947 1.875C7.08947 1.52982 7.36929 1.25 7.71447 1.25Z" fill="black"/>
</svg>
