<svg width="23" height="21" viewBox="0 0 23 21" fill="none" xmlns="http://www.w3.org/2000/svg">
<path d="M21.875 11.25H20.625V0.625C20.625 0.45924 20.5592 0.300269 20.4419 0.183058C20.3247 0.0658482 20.1658 0 20 0L2.5 0C2.33424 0 2.17527 0.0658482 2.05806 0.183058C1.94085 0.300269 1.875 0.45924 1.875 0.625L1.875 11.25H0.625C0.45924 11.25 0.300269 11.3158 0.183058 11.4331C0.0658482 11.5503 0 11.7092 0 11.875C0 12.0408 0.0658482 12.1997 0.183058 12.3169C0.300269 12.4342 0.45924 12.5 0.625 12.5H7.88313L5.65738 19.1773C5.62868 19.2557 5.61602 19.3392 5.62014 19.4227C5.62426 19.5061 5.64507 19.5879 5.68136 19.6632C5.71764 19.7385 5.76866 19.8057 5.83138 19.861C5.89411 19.9162 5.96727 19.9583 6.04655 19.9847C6.12582 20.0112 6.2096 20.0215 6.29292 20.015C6.37624 20.0085 6.45741 19.9853 6.53163 19.9469C6.60585 19.9085 6.67162 19.8556 6.72503 19.7913C6.77845 19.7271 6.81844 19.6527 6.84263 19.5728L7.95031 16.25H14.55L15.6577 19.5728C15.6819 19.6527 15.7219 19.7271 15.7753 19.7913C15.8287 19.8556 15.8945 19.9085 15.9687 19.9469C16.0429 19.9853 16.1241 20.0085 16.2074 20.015C16.2907 20.0215 16.3745 20.0112 16.4538 19.9847C16.533 19.9583 16.6062 19.9162 16.6689 19.861C16.7317 19.8057 16.7827 19.7385 16.819 19.6632C16.8552 19.5879 16.8761 19.5061 16.8802 19.4227C16.8843 19.3392 16.8716 19.2557 16.8429 19.1773L14.6169 12.5H21.875C22.0408 12.5 22.1997 12.4342 22.3169 12.3169C22.4342 12.1997 22.5 12.0408 22.5 11.875C22.5 11.7092 22.4342 11.5503 22.3169 11.4331C22.1997 11.3158 22.0408 11.25 21.875 11.25ZM14.1329 15H8.36706L9.20044 12.5H13.2996L14.1329 15ZM13.75 11.25H3.125L3.125 1.25L19.375 1.25V11.25H13.75Z" fill="black"/>
</svg>
