<svg width="39" height="39" viewBox="0 0 39 39" fill="none" xmlns="http://www.w3.org/2000/svg">
<path d="M20.204 9.25473C20.092 9.21413 19.9685 9.2196 19.8605 9.26995C19.7525 9.3203 19.6689 9.41143 19.628 9.52333L17.9244 14.204C17.8838 14.316 17.8893 14.4395 17.9396 14.5475C17.99 14.6555 18.0811 14.7391 18.193 14.78L22.8731 16.4834C22.9287 16.504 22.9877 16.5133 23.0469 16.511C23.1061 16.5087 23.1643 16.4947 23.218 16.4698C23.2718 16.4449 23.3202 16.4097 23.3603 16.3661C23.4004 16.3225 23.4315 16.2715 23.4519 16.2158L25.1555 11.5352C25.1757 11.4795 25.1847 11.4203 25.1819 11.3612C25.1792 11.302 25.1648 11.2439 25.1396 11.1903C25.1144 11.1367 25.0789 11.0886 25.035 11.0487C24.9912 11.0089 24.9399 10.9781 24.8841 10.9581L20.204 9.25473ZM20.3209 10.2544L24.1542 11.6496L22.7584 15.4845L18.9251 14.0893L20.3209 10.2544ZM17.5392 10.9349C17.458 10.8991 17.3681 10.888 17.2807 10.9032C14.0991 11.466 11.2945 13.6688 10.1113 16.9198C10.0707 17.0318 10.0761 17.1553 10.1265 17.2633C10.1768 17.3713 10.268 17.4549 10.3799 17.4958C10.4354 17.5163 10.4945 17.5256 10.5536 17.5232C10.6128 17.5208 10.6708 17.5067 10.7245 17.4819C10.7783 17.457 10.8266 17.4218 10.8666 17.3782C10.9067 17.3346 10.9378 17.2836 10.9581 17.228C12.0298 14.2834 14.5611 12.2983 17.4363 11.7897C17.5536 11.7691 17.658 11.7028 17.7266 11.6054C17.7951 11.508 17.8222 11.3873 17.8019 11.27C17.7917 11.2115 17.7701 11.1557 17.7382 11.1057C17.7063 11.0557 17.6648 11.0124 17.6162 10.9785C17.592 10.9615 17.5662 10.9468 17.5392 10.9349ZM25.8477 13.9589C25.8195 13.9508 25.7906 13.9455 25.7613 13.943C25.7021 13.9376 25.6425 13.944 25.5858 13.9618C25.5291 13.9796 25.4765 14.0085 25.4311 14.0467C25.3401 14.1237 25.2834 14.2336 25.2734 14.3523C25.2634 14.4711 25.3008 14.5889 25.3776 14.6801C27.2533 16.9179 27.9165 20.065 26.8448 23.0096C26.8245 23.0652 26.8154 23.1244 26.8181 23.1836C26.8207 23.2427 26.835 23.3008 26.8602 23.3545C26.8853 23.4081 26.9208 23.4563 26.9646 23.4962C27.0084 23.5361 27.0596 23.5669 27.1154 23.5869C27.2275 23.6276 27.3512 23.6221 27.4592 23.5716C27.5672 23.5211 27.6508 23.4298 27.6916 23.3178C28.8749 20.0668 28.1422 16.5772 26.0667 14.1009C26.0093 14.033 25.9331 13.9836 25.8477 13.9589ZM11.3637 18.8908C10.6384 18.6268 9.81249 18.6376 9.06106 18.988C7.55817 19.6888 6.90292 21.4891 7.60374 22.992C8.30453 24.4948 10.1049 25.1501 11.6077 24.4493C13.1106 23.7485 13.7658 21.9482 13.065 20.4453C12.7147 19.6939 12.0889 19.1547 11.3637 18.8908ZM25.4645 24.0231C24.7393 23.7591 23.9134 23.7699 23.1619 24.1203C21.6591 24.8211 21.0038 26.6214 21.7046 28.1243C22.4054 29.6271 24.2057 30.2824 25.7086 29.5816C27.2114 28.8808 27.8667 27.0805 27.1659 25.5776C26.8155 24.8262 26.1898 24.287 25.4645 24.0231ZM11.0576 19.7315C11.5647 19.9161 12.0009 20.2936 12.2485 20.8247C12.7438 21.8867 12.2889 23.1364 11.2269 23.6317C10.1648 24.1269 8.91683 23.6727 8.42159 22.6106C7.92634 21.5486 8.3812 20.2989 9.44325 19.8036C9.97428 19.556 10.5506 19.547 11.0576 19.7315ZM25.1585 24.8638C25.6656 25.0484 26.1018 25.4259 26.3494 25.957C26.8447 27.019 26.3898 28.2687 25.3278 28.764C24.2657 29.2592 23.0177 28.805 22.5225 27.7429C22.0272 26.6809 22.4821 25.4312 23.5441 24.9359C24.0752 24.6883 24.6515 24.6793 25.1585 24.8638ZM12.6887 25.1146C12.6085 25.0765 12.5189 25.063 12.431 25.0757C12.3432 25.0885 12.2611 25.1269 12.195 25.1862C12.1511 25.2257 12.1153 25.2736 12.0899 25.3269C12.0644 25.3803 12.0498 25.4382 12.0467 25.4972C12.0436 25.5563 12.0522 25.6153 12.0719 25.6711C12.0917 25.7268 12.1223 25.7781 12.1619 25.822C13.153 26.9222 14.4203 27.8038 15.9071 28.3449C17.1856 28.8103 18.5018 28.9791 19.7779 28.8864C19.8371 28.8824 19.8948 28.8667 19.9479 28.8402C20.001 28.8138 20.0483 28.7771 20.0871 28.7323C20.126 28.6875 20.1556 28.6355 20.1742 28.5792C20.1929 28.523 20.2003 28.4636 20.1959 28.4044C20.1916 28.3454 20.1757 28.2878 20.1491 28.235C20.1224 28.1821 20.0856 28.135 20.0408 28.0964C19.9959 28.0578 19.9439 28.0284 19.8877 28.0099C19.8315 27.9914 19.7721 27.9842 19.7131 27.9887C18.5604 28.0723 17.3733 27.9196 16.2153 27.4981C14.8687 27.008 13.7244 26.2133 12.829 25.2193C12.7895 25.1755 12.7419 25.14 12.6887 25.1146Z" fill="black"/>
</svg>
